<?xml version="1.0" encoding="UTF-8"?>
<svg version="1.1" xmlns="http://www.w3.org/2000/svg" width="64" height="64">
<path d="M0 0 C1.43248169 2.86496337 1.12782557 5.34787183 1.140625 8.546875 C1.15896152 9.8802253 1.17853261 11.21355908 1.19921875 12.546875 C1.22811192 14.64481304 1.24999806 16.74169425 1.25048828 18.83984375 C0.8726874 27.90554456 0.8726874 27.90554456 4.484375 35.828125 C5.31453125 36.54484375 6.1446875 37.2615625 7 38 C8.85602244 41.71204487 8.44875601 45.9487305 8 50 C5.81018851 54.37962299 3.15022066 57.39404749 -1 60 C-6.23563725 61.35738744 -9.99608499 61.03863204 -15 59 C-18.42675732 56.03014365 -21.74317093 53.15469582 -22.30078125 48.4765625 C-22.339897 38.95839645 -22.339897 38.95839645 -19 35 C-18.48074951 34.60965576 -17.96149902 34.21931152 -17.42651367 33.81713867 C-15.21779147 31.00359779 -15.56025844 28.45266361 -15.48828125 24.92578125 C-15.47033005 24.2419487 -15.45237885 23.55811615 -15.43388367 22.8535614 C-15.37977925 20.67327 -15.3458866 18.49319744 -15.3125 16.3125 C-15.2793268 14.83265183 -15.24483713 13.35283255 -15.20898438 11.87304688 C-15.12405476 8.24890831 -15.05724365 4.62469348 -15 1 C-9.96079526 -1.651971 -5.52264138 -1.84088046 0 0 Z M-11 3 C-12.88744744 4.88744744 -12.13100981 8.19356171 -12.140625 10.703125 C-12.15896138 12.08986006 -12.17853245 13.47657925 -12.19921875 14.86328125 C-12.22813405 17.05349287 -12.24999837 19.24269091 -12.25048828 21.43310547 C-12.25383497 23.54486375 -12.28845848 25.65427589 -12.328125 27.765625 C-12.3374707 29.03180664 -12.34681641 30.29798828 -12.35644531 31.60253906 C-13.15798965 35.8340607 -14.80038361 37.2290731 -18 40 C-19.12530252 42.69139174 -19.2897309 45.102691 -19 48 C-16.84238752 52.39821006 -14.52288692 55.06161989 -10 57 C-6.10920653 57.57947988 -4.3373392 57.17197685 -0.8125 55.375 C2.35537423 52.6999062 3.69061003 50.92816991 5 47 C5.16585191 43.41094915 5.16585191 43.41094915 4 40 C2.75343628 38.88105347 2.75343628 38.88105347 1.48168945 37.73950195 C-1.68767642 34.24088371 -1.64945354 32.39426319 -1.70703125 27.73046875 C-1.72215256 27.04946609 -1.73727386 26.36846344 -1.75285339 25.66682434 C-1.79560078 23.50670937 -1.80455435 21.34799507 -1.8125 19.1875 C-1.83565489 17.71675998 -1.86102231 16.24605302 -1.88867188 14.77539062 C-1.9513916 11.18362029 -1.98383125 7.59231596 -2 4 C-2.99 4 -3.98 4 -5 4 C-4.67 4.33 -4.34 4.66 -4 5 C-3.88995698 7.30541072 -3.84404601 9.61392462 -3.82421875 11.921875 C-3.80100922 13.35418118 -3.77689143 14.78647288 -3.75195312 16.21875 C-3.71690842 18.48121661 -3.68754074 20.74315506 -3.67407227 23.00585938 C-3.65854152 25.1868545 -3.618291 27.36629374 -3.57421875 29.546875 C-3.55963623 30.85495117 -3.54505371 32.16302734 -3.5300293 33.51074219 C-2.92152734 37.51659662 -1.65275975 39.02953471 1 42 C1.47996202 45.91968986 1.20832699 48.68750952 -1 52 C-4.20841035 53.60420518 -7.5193987 53.47462745 -11 53 C-13.5 51.5 -13.5 51.5 -15 49 C-15.54686219 46.22011721 -15.72991469 43.74791413 -15 41 C-14.01132935 40.17459717 -14.01132935 40.17459717 -13.00268555 39.33251953 C-10.22713206 36.09984392 -10.47285824 33.89893053 -10.42578125 29.6796875 C-10.41161667 28.9798172 -10.39745209 28.2799469 -10.38285828 27.55886841 C-10.34103977 25.3307547 -10.32573308 23.10345048 -10.3125 20.875 C-10.28343692 18.63978456 -10.24890496 16.40477346 -10.21000671 14.16970825 C-10.17727453 12.14696747 -10.15920938 10.1240053 -10.1418457 8.10107422 C-10 5 -10 5 -9 3 C-9.66 3 -10.32 3 -11 3 Z M-8 7 C-8 11.29 -8 15.58 -8 20 C-7.67 20 -7.34 20 -7 20 C-7 15.71 -7 11.42 -7 7 C-7.33 7 -7.66 7 -8 7 Z M-10 40 C-10 40.33 -10 40.66 -10 41 C-8.35 41 -6.7 41 -5 41 C-5 40.67 -5 40.34 -5 40 C-6.65 40 -8.3 40 -10 40 Z " fill="#4C4C4C" transform="translate(27,2)"/>
<path d="M0 0 C0.99 0 1.98 0 3 0 C3.33 0.99 3.66 1.98 4 3 C4.33 2.34 4.66 1.68 5 1 C5.99 1 6.98 1 8 1 C8.33 1.99 8.66 2.98 9 4 C11.01508358 4.73323796 11.01508358 4.73323796 13 5 C12.67 5.99 12.34 6.98 12 8 C12.99 8 13.98 8 15 8 C14.67 9.32 14.34 10.64 14 12 C14.66 12.33 15.32 12.66 16 13 C16 13.99 16 14.98 16 16 C15.01 16.33 14.02 16.66 13 17 C13.66 17.33 14.32 17.66 15 18 C15 19.32 15 20.64 15 22 C14.01 22 13.02 22 12 22 C12.33 22.99 12.66 23.98 13 25 C12.360625 25.103125 11.72125 25.20625 11.0625 25.3125 C10.381875 25.539375 9.70125 25.76625 9 26 C8.67 26.99 8.34 27.98 8 29 C6.68 28.67 5.36 28.34 4 28 C3.67 28.66 3.34 29.32 3 30 C2.01 30 1.02 30 0 30 C-0.33 28.68 -0.66 27.36 -1 26 C-1.66 26.99 -2.32 27.98 -3 29 C-3.99 28.67 -4.98 28.34 -6 28 C-6 27.01 -6 26.02 -6 25 C-7.32 25 -8.64 25 -10 25 C-9.67 24.01 -9.34 23.02 -9 22 C-10.32 21.67 -11.64 21.34 -13 21 C-12.34 19.68 -11.68 18.36 -11 17 C-11.99 16.67 -12.98 16.34 -14 16 C-13.67 15.01 -13.34 14.02 -13 13 C-12.34 12.67 -11.68 12.34 -11 12 C-11.66 11.01 -12.32 10.02 -13 9 C-12.01 8.34 -11.02 7.68 -10 7 C-10 6.01 -10 5.02 -10 4 C-8.68 4 -7.36 4 -6 4 C-5.67 3.01 -5.34 2.02 -5 1 C-4.01 1 -3.02 1 -2 1 C-1.67 1.66 -1.34 2.32 -1 3 C-0.67 2.01 -0.34 1.02 0 0 Z M-2.25 9.125 C-4.4695324 11.50307043 -5 12.74015326 -5 16 C-3.65884601 19.00979883 -3.65884601 19.00979883 -1 21 C2.99438174 20.93113135 5.1314229 20.8685771 8 18 C8.44462008 13.87169954 8.44462008 13.87169954 6.8125 10.1875 C3.6089975 8.08865354 1.2580559 7.37097205 -2.25 9.125 Z " fill="#4B4B4B" transform="translate(43,11)"/>
</svg>
